<svg xmlns="http://www.w3.org/2000/svg" width="256" height="256" viewBox="0 0 100 100"><path fill="#d0021b" d="M-1.84 42.68L-1.84 42.68Q-1.57 41.36-1.48 40.53Q-1.40 39.69-2.10 38.73L-2.10 38.73Q-1.75 37.32-1.53 36.53Q-1.31 35.74-1.48 34.33L-1.48 34.33Q-0.69 32.05 0.93 30.46Q2.56 28.88 4.49 27.78Q6.43 26.68 8.54 25.94Q10.64 25.19 12.49 24.66L12.49 24.66Q12.49 24.31 12.14 24.31Q11.79 24.31 11.96 23.87L11.96 23.87Q16.71 22.99 21.50 21.32Q26.29 19.65 31.30 18.33Q36.31 17.02 41.58 16.71Q46.86 16.40 52.66 18.07L52.66 18.07Q53.01 19.13 53.62 20.09Q54.24 21.06 54.90 21.98Q55.56 22.91 56.08 23.78Q56.61 24.66 56.70 25.63L56.70 25.63Q57.75 26.60 58.41 27.70Q59.07 28.79 58.63 30.64L58.63 30.64Q57.67 31.34 56.61 32.05Q55.56 32.75 54.41 33.36L54.41 33.36Q50.46 32.40 46.50 32.66Q42.55 32.92 39.38 33.28L39.38 33.28Q38.42 32.22 37.10 32.27Q35.78 32.31 34.33 32.71Q32.88 33.10 31.47 33.50Q30.07 33.89 28.84 33.72L28.84 33.72Q27.87 34.59 26.29 34.90Q24.71 35.21 22.95 35.39L22.95 35.39Q22.86 35.83 23.12 36.00Q23.39 36.18 23.21 36.70L23.21 36.70Q23.83 37.50 24.88 37.80Q25.94 38.11 27.04 38.37Q28.13 38.64 29.01 39.12Q29.89 39.60 30.16 40.66L30.16 40.66Q31.74 40.75 32.88 41.49Q34.02 42.24 34.81 43.30Q35.61 44.35 35.96 45.54Q36.31 46.72 36.22 47.69L36.22 47.69Q36.57 48.57 36.97 48.39Q37.36 48.22 37.89 48.83L37.89 48.83Q38.24 50.15 39.52 51.60Q40.79 53.05 41.49 54.72L41.49 54.72Q41.67 57.36 41.80 59.47Q41.93 61.58 41.05 63.60L41.05 63.60Q39.56 67.47 36.75 70.54Q33.94 73.62 30.38 75.95Q26.82 78.28 22.86 79.99Q18.91 81.70 15.04 82.85L15.04 82.85Q14.69 82.76 14.20 82.85Q13.72 82.93 13.98 82.32L13.98 82.32Q13.19 83.02 12.18 83.20Q11.17 83.37 9.99 83.33Q8.80 83.29 7.61 83.20Q6.43 83.11 5.28 83.29L5.28 83.29Q4.58 82.58 4.01 81.88Q3.44 81.18 3.09 80.21L3.09 80.21Q2.65 80.12 2.69 79.64Q2.73 79.16 2.29 79.16L2.29 79.16Q2.29 78.80 2.38 78.63Q2.47 78.45 2.56 78.28L2.56 78.28Q2.91 78.01 2.87 77.88Q2.82 77.75 2.60 77.62Q2.38 77.49 2.16 77.31Q1.94 77.13 2.03 76.87L2.03 76.87Q2.47 76.08 2.34 74.98Q2.21 73.88 2.12 72.74Q2.03 71.60 2.29 70.59Q2.56 69.58 3.79 68.87L3.79 68.87Q7.39 69.22 10.60 68.52Q13.81 67.82 16.67 66.59Q19.52 65.36 22.11 63.91Q24.71 62.46 27.17 61.23L27.17 61.23Q27.43 60.35 28.00 59.73Q28.57 59.12 29.19 58.54Q29.80 57.97 30.33 57.31Q30.86 56.66 31.12 55.69L31.12 55.69Q31.21 55.34 31.12 55.16Q31.04 54.99 30.86 54.85Q30.68 54.72 30.51 54.55Q30.33 54.37 30.33 54.02L30.33 54.02Q30.07 53.93 29.85 53.84Q29.63 53.75 29.45 53.75L29.45 53.75Q27.17 52.61 24.62 51.82Q22.07 51.03 20.31 50.06L20.31 50.06Q19.26 50.77 18.20 50.42Q17.15 50.06 15.65 49.71L15.65 49.71Q11.96 49.54 8.67 49.01Q5.37 48.48 2.29 47.16L2.29 47.16Q2.12 46.64 1.86 46.24Q1.59 45.84 0.62 46.02L0.62 46.02Q0.01 45.14-0.65 44.39Q-1.31 43.65-1.84 42.68ZM57.05 74.67L57.05 74.67Q54.50 72.74 52.88 69.84Q51.25 66.94 50.33 63.69Q49.40 60.43 49.10 56.96Q48.79 53.49 48.88 50.33L48.88 50.33Q49.67 47.95 50.81 45.98Q51.95 44.00 53.36 42.20Q54.77 40.40 56.30 38.77Q57.84 37.14 59.34 35.47L59.34 35.47Q59.86 35.47 60.30 35.74L60.30 35.74Q60.65 34.77 61.36 34.07Q62.06 33.36 62.85 32.79Q63.64 32.22 64.43 31.65Q65.22 31.08 65.75 30.29L65.75 30.29Q67.95 29.76 69.66 28.79Q71.38 27.83 72.96 26.68Q74.54 25.54 76.21 24.58Q77.88 23.61 80.08 23.08L80.08 23.08Q80.87 22.20 82.06 21.59Q83.24 20.97 84.43 20.44Q85.62 19.92 86.71 19.30Q87.81 18.69 88.52 17.63L88.52 17.63Q89.04 18.33 90.01 18.12Q90.98 17.90 91.77 17.63L91.77 17.63Q92.29 17.54 92.65 17.81Q93.00 18.07 93.31 18.38Q93.61 18.69 93.83 18.77Q94.05 18.86 94.32 18.25L94.32 18.25Q95.02 18.33 94.71 18.86Q94.40 19.39 94.32 19.57L94.32 19.57Q95.20 19.39 95.77 19.87Q96.34 20.36 97.57 20.53L97.57 20.53Q98.01 20.97 97.83 21.24Q97.66 21.50 97.57 22.11L97.57 22.11Q100.73 23.08 101.61 25.15Q102.49 27.21 101.79 29.45Q101.08 31.69 99.19 33.58Q97.30 35.47 95.02 36.09L95.02 36.09Q92.29 36.79 89.97 37.50Q87.64 38.20 85.48 39.08Q83.33 39.96 81.44 41.14Q79.55 42.33 78.14 43.91L78.14 43.91Q75.68 44.61 73.71 45.84Q71.73 47.08 70.01 48.57Q68.30 50.06 66.72 51.69Q65.14 53.32 63.55 54.90L63.55 54.90Q63.55 56.39 63.03 57.18Q62.50 57.97 61.88 58.76L61.88 58.76Q62.06 60.43 62.63 61.62Q63.20 62.81 63.82 64.04L63.82 64.04Q70.85 66.15 78.72 66.63Q86.58 67.11 94.32 67.20L94.32 67.20Q95.11 68.26 96.12 69.18Q97.13 70.10 97.96 71.07Q98.80 72.04 99.28 73.31Q99.77 74.58 99.50 76.34L99.50 76.34Q98.01 77.84 96.25 79.20Q94.49 80.56 92.73 81.88L92.73 81.88Q91.94 81.97 90.84 81.88Q89.75 81.79 88.56 81.79Q87.37 81.79 86.19 81.92Q85 82.06 83.95 82.50L83.95 82.50Q78.41 82.32 72.61 81.13Q66.81 79.95 61.88 78.28L61.88 78.28Q60.92 77.13 59.86 76.12Q58.81 75.11 57.05 74.67Z"></path></svg>